<svg width="33" height="32" viewBox="0 0 33 32" fill="none" xmlns="http://www.w3.org/2000/svg">
<g id="AI Icons">
<path id="Vector" fill-rule="evenodd" clip-rule="evenodd" d="M14.567 5.33751C14.8068 4.40418 15.2464 4.05751 16.0858 4.00418C17.3516 3.92418 18.2309 5.00418 17.8179 6.20418C17.4653 7.18833 17.0676 8.15955 16.6695 9.13135L16.6695 9.13142C16.496 9.55519 16.3224 9.97907 16.1524 10.4042C16.0768 10.5919 16.0018 10.7797 15.9269 10.9672L15.9268 10.9677L15.9268 10.9677C15.6719 11.606 15.4178 12.2424 15.1399 12.8708C14.8068 13.6175 13.8475 13.7642 13.1813 13.2042C13.1586 13.1224 13.1266 13.0406 13.0949 12.9594C13.0334 12.8022 12.9727 12.6469 12.9815 12.4975C13.0081 11.9642 13.0747 11.4308 13.1946 10.9242C13.6343 9.05751 14.0873 7.19085 14.567 5.33751ZM23.5933 11.3444L23.5915 11.346L23.5892 11.348C22.8079 12.0234 22.0266 12.6988 21.242 13.3775V13.3642C20.8601 13.6895 20.4881 14.0197 20.1139 14.3519L20.1139 14.3519L20.1138 14.3519C19.8745 14.5644 19.6343 14.7776 19.39 14.9908C18.6972 15.6042 18.4308 15.6308 17.8312 15.1508C17.2583 14.7108 17.205 14.2575 17.6713 13.7108C19.5364 11.5244 21.4148 9.33799 23.2932 7.15156L23.2934 7.15136L23.2935 7.15124L23.2938 7.15085C23.8267 6.53751 24.4396 6.08418 25.3056 6.36418C26.598 6.79085 26.9311 8.32418 25.9452 9.31085C25.159 9.99094 24.3761 10.6677 23.5933 11.3444ZM28.5432 15.6708C28.1568 15.0175 27.4241 14.7242 26.6913 14.9642C26.3019 15.0908 25.9197 15.253 25.5393 15.4144L25.5393 15.4145C25.3991 15.474 25.2591 15.5334 25.1191 15.5908C24.7429 15.7457 24.3674 15.8999 23.9924 16.0538C22.7206 16.5759 21.455 17.0954 20.1894 17.6308C19.43 17.9508 19.2035 18.3775 19.3634 18.9642C19.5766 19.7375 19.9629 19.9775 20.829 19.8575C20.9489 19.8442 21.0688 19.8308 21.1887 19.8042C23.2938 19.3108 25.3856 18.8175 27.4773 18.3108C27.683 18.2594 27.8777 18.1638 28.0755 18.0666C28.1852 18.0128 28.2959 17.9584 28.41 17.9108C28.9562 17.2708 29.0229 16.4708 28.5565 15.6708H28.5432ZM6.91933 17.2575C9.74389 18.6708 10.8897 18.6708 13.7143 17.2575C14.94 16.6442 16.2191 17.9242 15.6062 19.1508C14.1939 21.9775 14.1939 23.1242 15.6062 25.9508C16.2191 27.1775 14.94 28.4575 13.7143 27.8442C10.8897 26.4308 9.74389 26.4308 6.91933 27.8442C5.69357 28.4575 4.41453 27.1775 5.0274 25.9508C6.43969 23.1242 6.43969 21.9775 5.0274 19.1508C4.72096 18.5375 4.88085 17.9108 5.28055 17.5108C5.68025 17.1108 6.30645 16.9508 6.91933 17.2575Z" fill="white"/>
</g>
</svg>
