<svg width="33" height="32" viewBox="0 0 33 32" fill="none" xmlns="http://www.w3.org/2000/svg">
<g id="AI Icons">
<path id="Vector" d="M26.4128 19.3925H24.0128C24.0928 19.02 24.1328 18.6474 24.1328 18.2483V17.1042H25.0795C25.7061 17.1042 26.2261 16.5987 26.2261 15.9601C26.2261 15.3215 25.7195 14.816 25.0795 14.816H24.1328V13.6718C24.1328 13.286 24.0928 12.9002 24.0128 12.5277H26.9861C27.6128 12.5277 28.1328 12.0222 28.1328 11.3836C28.1328 10.745 27.6261 10.2395 26.9861 10.2395H22.9861C22.6661 9.81375 22.2795 9.42794 21.8395 9.09534V5.71619C21.8395 5.09091 21.3328 4.57206 20.6928 4.57206C20.0528 4.57206 19.5461 5.07761 19.5461 5.71619V8.11086C19.1728 8.03104 18.7995 7.99113 18.3995 7.99113H17.2528V5.14412C17.2528 4.51885 16.7461 4 16.1061 4C15.4661 4 14.9595 4.50554 14.9595 5.14412V7.99113H13.8128C13.4261 7.99113 13.0395 8.03104 12.6661 8.11086V5.71619C12.6661 5.09091 12.1595 4.57206 11.5195 4.57206C10.8795 4.57206 10.3728 5.07761 10.3728 5.71619V9.13525C9.94615 9.45455 9.55948 9.84035 9.22615 10.2794H5.85281C5.22615 10.2794 4.70615 10.7849 4.70615 11.4235C4.70615 12.0621 5.21281 12.5676 5.85281 12.5676H8.25281C8.17281 12.9401 8.13281 13.3126 8.13281 13.7118V14.8559H6.54615C5.91948 14.8559 5.39948 15.3614 5.39948 16C5.39948 16.6386 5.90615 17.1441 6.54615 17.1441H8.13281V18.2882C8.13281 18.6741 8.17281 19.0599 8.25281 19.4324H5.27948C4.65281 19.4324 4.13281 19.9379 4.13281 20.5765C4.13281 21.2151 4.63948 21.7206 5.27948 21.7206H9.27948C9.59948 22.1463 9.98615 22.5322 10.4261 22.8647V26.2838C10.4261 26.9091 10.9328 27.4279 11.5728 27.4279C12.2128 27.4279 12.7195 26.9224 12.7195 26.2838V23.8891C13.0928 23.969 13.4661 24.0089 13.8661 24.0089H15.0128V26.8559C15.0128 27.4812 15.5195 28 16.1595 28C16.7995 28 17.3061 27.4945 17.3061 26.8559V24.0089H18.4528C18.8395 24.0089 19.2261 23.969 19.5995 23.8891V26.2838C19.5995 26.9091 20.1061 27.4279 20.7461 27.4279C21.3861 27.4279 21.8928 26.9224 21.8928 26.2838V22.8647C22.3195 22.5455 22.7061 22.1596 23.0395 21.7206H26.4661C27.0928 21.7206 27.6128 21.2151 27.6128 20.5765C27.6128 19.9379 27.1061 19.4324 26.4661 19.4324L26.4128 19.3925ZM19.4528 16.6519L17.1061 20.1641C16.7461 20.6962 16.0128 20.8426 15.4795 20.4834C14.9461 20.1242 14.7995 19.3925 15.1595 18.8603L16.2928 17.1707H13.7861C13.3595 17.1707 12.9595 16.9313 12.7461 16.5588C12.5461 16.1729 12.5595 15.7206 12.7995 15.3614L15.1461 11.8492C15.5061 11.3171 16.2395 11.1707 16.7728 11.5299C17.3061 11.8891 17.4528 12.6208 17.0928 13.153L15.9595 14.8426H18.4661C18.8928 14.8426 19.2928 15.082 19.5061 15.4545C19.7195 15.8271 19.6928 16.2927 19.4528 16.6519Z" fill="white"/>
</g>
</svg>
