<svg width="19" height="19" viewBox="0 0 19 19" fill="none" xmlns="http://www.w3.org/2000/svg">
<g id="Vector" clip-path="url(#clip0_696_7358)">
<path id="Vector_2" d="M18.1177 16.1118L9.88433 7.87844C9.37706 7.37117 8.54787 7.37117 8.04061 7.87844C7.53334 8.3857 7.53334 9.21489 8.04061 9.72216L16.2642 17.9457C16.7715 18.453 17.6006 18.453 18.1079 17.9457C18.6152 17.4385 18.6152 16.6093 18.1079 16.102L18.1177 16.1118Z" fill="white"/>
<path id="Vector_3" d="M7.82628 12.0146C7.1922 11.8488 6.53861 12.2195 6.36301 12.8633L5.72893 15.2338C5.56309 15.8679 5.93379 16.5215 6.57763 16.6971C7.22147 16.8727 7.86531 16.4922 8.0409 15.8484L8.67498 13.4779C8.84082 12.8438 8.47012 12.1902 7.82628 12.0146Z" fill="white"/>
<path id="Vector_4" d="M4.19762 8.48323L1.82712 9.11732C1.19303 9.29291 0.812582 9.9465 0.988175 10.5806C1.16377 11.2147 1.81736 11.5951 2.45145 11.4195L4.82195 10.7854C5.45603 10.6099 5.83648 9.95626 5.66089 9.32217C5.4853 8.68809 4.8317 8.30764 4.19762 8.48323Z" fill="white"/>
<path id="Vector_5" d="M4.41182 6.064C4.88007 6.53224 5.63121 6.53224 6.09946 6.064C6.56771 5.59575 6.56771 4.8446 6.09946 4.37636L4.36304 2.63994C3.8948 2.1717 3.14365 2.1717 2.6754 2.63994C2.20716 3.10819 2.20716 3.85934 2.6754 4.32758L4.41182 6.064Z" fill="white"/>
<path id="Vector_6" d="M9.35888 5.49819C9.99296 5.66403 10.6466 5.29333 10.8221 4.64949L11.4562 2.27899C11.6221 1.64491 11.2514 0.991314 10.6075 0.815721C9.97345 0.649884 9.31986 1.02058 9.14426 1.66442L8.51018 4.03492C8.34434 4.669 8.71504 5.3226 9.35888 5.49819Z" fill="white"/>
<path id="Vector_7" d="M13.3772 8.62961L15.7477 7.99553C16.3818 7.81993 16.7623 7.16634 16.5867 6.53226C16.4111 5.89817 15.7575 5.51772 15.1234 5.69331L12.7529 6.3274C12.1188 6.50299 11.7384 7.15659 11.914 7.79067C12.0895 8.42475 12.7431 8.8052 13.3772 8.62961Z" fill="white"/>
</g>
<defs>
<clipPath id="clip0_696_7358">
<rect width="17.5593" height="17.5593" fill="white" transform="translate(0.939453 0.776672)"/>
</clipPath>
</defs>
</svg>
