<svg width="33" height="32" viewBox="0 0 33 32" fill="none" xmlns="http://www.w3.org/2000/svg">
<g id="AI Icons">
<path id="Vector" fill-rule="evenodd" clip-rule="evenodd" d="M16.8605 7.76209C17.8994 7.76209 18.7416 6.91992 18.7416 5.88105C18.7416 4.84217 17.8994 4 16.8605 4C15.8216 4 14.9795 4.84217 14.9795 5.88105C14.9795 6.91992 15.8216 7.76209 16.8605 7.76209ZM16.8605 24.2379C15.8199 24.2379 14.9795 25.0784 14.9795 26.119C14.9795 27.1595 15.8199 28 16.8605 28C17.9011 28 18.7416 27.1595 18.7416 26.119C18.7416 25.0784 17.9011 24.2379 16.8605 24.2379ZM25.1051 16.0067C25.1051 14.9661 25.9456 14.1256 26.9861 14.1256C28.0267 14.1256 28.8672 14.9661 28.8672 16.0067C28.8672 17.0472 28.0267 17.8877 26.9861 17.8877C25.9456 17.8877 25.1051 17.0472 25.1051 16.0067ZM8.62928 16.0067C8.62928 14.9661 7.78881 14.1256 6.74823 14.1256C5.70765 14.1256 4.86719 14.9661 4.86719 16.0067C4.86719 17.0472 5.70765 17.8877 6.74823 17.8877C7.78881 17.8877 8.62928 17.0472 8.62928 16.0067ZM25.3452 7.50861C26.079 8.24235 26.079 9.44302 25.3452 10.1768C24.6115 10.9105 23.4108 10.9105 22.6771 10.1768C21.9433 9.44302 21.9433 8.24235 22.6771 7.50861C23.4108 6.77487 24.6115 6.77487 25.3452 7.50861ZM8.3758 21.8366C7.64206 22.5703 7.64206 23.771 8.3758 24.5047C9.10954 25.2385 10.3102 25.2385 11.044 24.5047C11.7777 23.771 11.7777 22.5703 11.044 21.8366C10.3102 21.1028 9.10954 21.1028 8.3758 21.8366ZM22.6904 24.5047C21.9567 23.771 21.9567 22.5703 22.6904 21.8366C23.4242 21.1028 24.6248 21.1028 25.3586 21.8366C26.0923 22.5703 26.0923 23.771 25.3586 24.5047C24.6248 25.2385 23.4242 25.2385 22.6904 24.5047ZM11.0306 10.1768C11.7644 9.44302 11.7644 8.24235 11.0306 7.50861C10.2969 6.77487 9.09621 6.77487 8.36247 7.50861C7.62873 8.24235 7.62873 9.44302 8.36247 10.1768C9.09621 10.9105 10.2969 10.9105 11.0306 10.1768ZM18.0212 10.657C18.9017 13.2718 19.6087 13.9789 22.2102 14.846C23.3441 15.2196 23.3441 16.7938 22.2102 17.1673C19.5954 18.0345 18.8883 18.7549 18.0212 21.3563C17.6476 22.4903 16.0734 22.4903 15.6999 21.3563C14.8194 18.7415 14.1123 18.0345 11.5109 17.1673C10.9506 16.9805 10.6571 16.5003 10.6571 16.0067C10.6571 15.5131 10.9506 15.0328 11.5109 14.846C14.1257 13.9789 14.8327 13.2718 15.6999 10.657C16.0734 9.52307 17.6476 9.52307 18.0212 10.657Z" fill="white"/>
</g>
</svg>
