<svg width="112" height="40" viewBox="0 0 112 40" fill="none" xmlns="http://www.w3.org/2000/svg">
<g id="Figma svg" clip-path="url(#clip0_198_8991)">
<path id="Vector" d="M0.769531 0.00193068V30.8996L4.74518 30.9119V16.198H14.3307V12.3088H4.74518V3.88921H17.229V0L0.769531 0.00193068Z" fill="black"/>
<path id="Vector_2" d="M24.3858 6.274C25.8178 6.274 26.9786 5.11316 26.9786 3.68119C26.9786 2.24922 25.8178 1.08838 24.3858 1.08838C22.9539 1.08838 21.793 2.24922 21.793 3.68119C21.793 5.11316 22.9539 6.274 24.3858 6.274Z" fill="black"/>
<path id="Vector_3" d="M22.3633 10.1632V30.9057H26.3389V10.1632H22.3633Z" fill="black"/>
<path id="Vector_4" fill-rule="evenodd" clip-rule="evenodd" d="M41.0828 9.55823C35.8034 9.55823 32.1191 14.0232 32.1191 19.3244C32.1191 24.6257 35.8034 29.0907 41.0828 29.0907C43.4998 29.0907 45.4917 28.1549 46.9414 26.6317V29.3932C46.9414 32.8299 44.2419 35.7024 40.7187 35.7024C39.4523 35.7024 38.1941 35.2115 37.1916 34.5206L35.1996 37.9707C36.7906 38.9963 38.6851 39.5916 40.7187 39.5916C46.3512 39.5916 50.917 35.0256 50.917 29.3932V10.1632H46.9414V12.0173C45.4917 10.494 43.4998 9.55823 41.0828 9.55823ZM36.0948 19.3244C36.0948 16.0339 38.6119 13.4474 41.515 13.4474C44.4183 13.4474 46.9352 16.0339 46.9352 19.3244C46.9352 22.615 44.4183 25.2015 41.515 25.2015C38.6119 25.2015 36.0948 22.615 36.0948 19.3244Z" fill="black"/>
<path id="Vector_5" d="M65.2429 13.4474C62.8921 13.4474 60.9864 15.4395 60.9864 17.7903V30.9057H57.0107V10.1632H60.9864V12.0633C62.1513 10.5575 63.8674 9.55823 66.1071 9.55823C68.8929 9.55823 71.031 10.9419 72.2693 13.0594C73.6463 11.0141 75.8924 9.55823 78.5959 9.55823C83.1208 9.55823 85.9372 13.2089 85.9638 17.7255C85.9638 17.7391 85.9638 17.7528 85.9638 17.7666V17.7673V17.768V17.7687C85.9638 17.7759 85.9638 17.7831 85.9638 17.7903V30.9057H81.9882V17.7903C81.9882 15.4395 80.0825 13.4474 77.7317 13.4474C75.3807 13.4474 73.4751 15.4395 73.4751 17.7903V30.9057H69.4995V17.7903C69.4995 15.4395 67.5937 13.4474 65.2429 13.4474Z" fill="black"/>
<path id="Vector_6" fill-rule="evenodd" clip-rule="evenodd" d="M107.139 12.5146C105.37 10.6883 102.948 9.55823 100.138 9.55823C94.2238 9.55823 90.0264 14.5659 90.0264 20.5344C90.0264 26.503 94.2238 31.5106 100.138 31.5106C102.948 31.5106 105.37 30.3807 107.139 28.5543V30.9057H111.114V10.1632H107.139V12.5146ZM94.002 20.5344C94.002 16.5747 97.0339 13.4474 100.57 13.4474C104.107 13.4474 107.139 16.5747 107.139 20.5344C107.139 24.4942 104.107 27.6214 100.57 27.6214C97.0339 27.6214 94.002 24.4942 94.002 20.5344Z" fill="black"/>
</g>
<defs>
<clipPath id="clip0_198_8991">
<rect width="110.345" height="40" fill="white" transform="translate(0.769531)"/>
</clipPath>
</defs>
</svg>
