<svg width="251" height="225" viewBox="0 0 251 225" fill="none" xmlns="http://www.w3.org/2000/svg">
<g id="Hand-drawn arrow">
<path id="Vector" d="M12.7099 99.1706C12.108 98.1878 10.8233 97.8789 9.84043 98.4807C8.85755 99.0826 8.54868 100.367 9.15054 101.35L12.7099 99.1706ZM141.972 93.9065L142.063 91.8217L142.062 91.8216L141.972 93.9065ZM114.821 165.517L116.263 164.008L116.263 164.008L114.821 165.517ZM231.026 82.8768C231.114 81.7277 230.254 80.7246 229.105 80.6363C227.956 80.548 226.953 81.4081 226.865 82.5572L231.026 82.8768ZM4.84868 116.218C4.65406 117.354 5.41717 118.432 6.55313 118.627C7.68909 118.822 8.76775 118.058 8.96237 116.922L4.84868 116.218ZM9.93775 98.8717L10.0251 96.7868C8.97636 96.7428 8.05817 97.4847 7.88091 98.5194L9.93775 98.8717ZM28.1105 101.344C29.2608 101.273 30.1355 100.283 30.0641 99.1325C29.9928 97.9822 29.0025 97.1075 27.8522 97.1788L28.1105 101.344ZM10.9302 100.26C9.15054 101.35 9.15104 101.351 9.15171 101.352C9.15216 101.353 9.153 101.354 9.15389 101.356C9.15568 101.359 9.15815 101.363 9.16128 101.368C9.16756 101.378 9.17652 101.392 9.18815 101.411C9.21142 101.449 9.24538 101.503 9.2899 101.574C9.37894 101.717 9.51023 101.925 9.68275 102.194C10.0278 102.732 10.5377 103.515 11.2045 104.504C12.5377 106.482 14.4988 109.286 17.0218 112.612C22.0641 119.258 29.3695 128.01 38.4113 136.405C56.4006 153.107 81.7572 168.84 110.045 162.793L109.173 158.711C82.9584 164.315 58.9755 149.802 41.251 133.346C32.4359 125.162 25.2908 116.606 20.3468 110.089C17.8767 106.834 15.9608 104.093 14.6652 102.171C14.0176 101.21 13.5252 100.454 13.1965 99.9416C13.0322 99.6852 12.9087 99.4896 12.8273 99.3595C12.7866 99.2945 12.7563 99.2458 12.7367 99.2141C12.7269 99.1983 12.7197 99.1867 12.7153 99.1794C12.713 99.1758 12.7115 99.1732 12.7106 99.1718C12.7101 99.171 12.7099 99.1707 12.7097 99.1704C12.7097 99.1704 12.7099 99.1706 10.9302 100.26ZM110.045 162.793C137.996 156.818 152.647 139.838 157.105 123.907C159.32 115.99 159.031 108.254 156.47 102.319C153.881 96.3197 148.914 92.1191 142.063 91.8217L141.882 95.9914C146.851 96.2071 150.562 99.1624 152.638 103.973C154.741 108.847 155.103 115.573 153.085 122.783C149.077 137.106 135.726 153.035 109.173 158.711L110.045 162.793ZM142.062 91.8216C135.511 91.5391 128.534 94.3758 122.323 98.9892C116.084 103.624 110.431 110.184 106.509 117.694C98.6538 132.739 97.6245 151.981 113.38 167.026L116.263 164.008C102.223 150.601 102.95 133.528 110.209 119.626C113.845 112.662 119.089 106.591 124.812 102.34C130.563 98.0673 136.614 95.7642 141.882 95.9914L142.062 91.8216ZM113.38 167.026C121.407 174.693 132.64 177.215 144.747 175.847C156.852 174.479 170.027 169.215 182.326 161.034C206.897 144.688 228.455 116.353 231.026 82.8768L226.865 82.5572C224.416 114.444 203.804 141.733 180.014 157.559C168.132 165.463 155.58 170.422 144.278 171.699C132.979 172.976 123.128 170.565 116.263 164.008L113.38 167.026ZM8.96237 116.922L11.9946 99.2241L7.88091 98.5194L4.84868 116.218L8.96237 116.922ZM9.93775 98.8717C9.85037 100.957 9.85045 100.957 9.85059 100.957C9.85071 100.957 9.8509 100.957 9.85114 100.957C9.85161 100.957 9.85231 100.957 9.85322 100.957C9.85505 100.957 9.85776 100.957 9.86132 100.957C9.86845 100.957 9.87904 100.958 9.89297 100.959C9.92084 100.96 9.96212 100.961 10.016 100.964C10.1238 100.968 10.2822 100.974 10.4848 100.983C10.89 100.999 11.4726 101.022 12.1824 101.049C13.6019 101.102 15.5322 101.172 17.5738 101.235C21.5989 101.358 26.2277 101.461 28.1105 101.344L27.8522 97.1788C26.2103 97.2807 21.8174 97.189 17.7017 97.0628C15.6731 97.0006 13.7534 96.9316 12.3404 96.8781C11.634 96.8513 11.0547 96.8285 10.6522 96.8123C10.4509 96.8043 10.2939 96.7979 10.1873 96.7935C10.134 96.7913 10.0933 96.7896 10.0661 96.7885C10.0524 96.7879 10.0421 96.7875 10.0353 96.7872C10.0318 96.787 10.0293 96.7869 10.0276 96.7869C10.0267 96.7868 10.0261 96.7868 10.0257 96.7868C10.0255 96.7868 10.0254 96.7868 10.0253 96.7868C10.0252 96.7868 10.0251 96.7868 9.93775 98.8717Z" fill="#9E77ED"/>
</g>
</svg>
