<svg width="114" height="40" viewBox="0 0 114 40" fill="none" xmlns="http://www.w3.org/2000/svg">
<g id="HashiCorp svg" style="mix-blend-mode:luminosity" clip-path="url(#clip0_198_8968)">
<g id="Layer 2">
<g id="Logo">
<path id="Vector" d="M0.0788097 31.0383V21.8377H-8.02707V31.0383H-12.1543V9.22125H-8.02707V18.1953H0.0788097V9.22125H4.20604V31.0383H0.0788097Z" fill="black"/>
<path id="Vector_2" d="M19.3373 31.0383H16.0603L15.7631 29.9588C14.3467 30.8779 12.6938 31.3674 11.0044 31.368C8.08236 31.368 6.83594 29.3696 6.83594 26.6172C6.83594 23.3745 8.24745 22.1302 11.4956 22.1302H15.3339V20.4574C15.3339 18.6898 14.8428 18.0676 12.2839 18.0676C10.7956 18.0779 9.31205 18.2366 7.85536 18.5414L7.36422 15.4965C9.14954 15.0032 10.9928 14.7496 12.8452 14.7425C17.8639 14.7425 19.3414 16.5101 19.3414 20.5109L19.3373 31.0383ZM15.3339 25.0103H12.3829C11.0705 25.0103 10.7114 25.3688 10.7114 26.5843C10.7114 27.6968 11.0705 28.1912 12.321 28.1912C13.3801 28.1741 14.4178 27.8907 15.338 27.3671L15.3339 25.0103Z" fill="black"/>
<path id="Vector_3" d="M27.0843 31.3638C25.2107 31.3331 23.3523 31.0234 21.5703 30.445L22.1275 27.4001C23.6755 27.8422 25.2762 28.0737 26.8862 28.0882C28.6568 28.0882 28.9209 27.6762 28.9209 26.4813C28.9209 25.5006 28.7228 25.0062 26.1309 24.384C22.2265 23.4322 21.7684 22.4516 21.7684 19.3737C21.7684 16.164 23.1799 14.7549 27.7405 14.7549C29.3538 14.7563 30.9616 14.943 32.5322 15.3111L32.1195 18.4879C30.6686 18.2206 29.1989 18.0676 27.724 18.0305C25.9864 18.0305 25.6893 18.4425 25.6893 19.4067C25.6893 20.684 25.7883 20.7829 27.9551 21.3391C32.4291 22.5216 32.8583 23.1108 32.8583 26.37C32.8583 29.4644 31.9049 31.3638 27.0843 31.3638Z" fill="black"/>
<path id="Vector_4" d="M44.7678 31.0383V19.9135C44.7678 19.0606 44.4087 18.6362 43.4883 18.6362C42.506 18.6362 40.7643 19.2254 39.3198 19.9794V31.0383H35.3164V8.56613L39.3198 8.00989V16.2958C41.1322 15.3671 43.1245 14.8414 45.1598 14.7548C47.8178 14.7548 48.767 16.6213 48.767 19.4726V31.0383H44.7678Z" fill="black"/>
<path id="Vector_5" d="M51.7227 12.8265V8.20767H55.7261V12.8265H51.7227ZM51.7227 31.0383V15.0845H55.7261V31.0383H51.7227Z" fill="black"/>
<path id="Vector_6" d="M58.5156 15.2163C58.5156 11.2196 60.8434 8.89575 66.2913 8.89575C68.2929 8.89531 70.2872 9.13744 72.2304 9.61681L71.7764 13.185C70.0067 12.8502 68.2119 12.6641 66.411 12.6288C63.555 12.6288 62.6387 13.6135 62.6387 15.925V24.3098C62.6387 26.6337 63.5591 27.6061 66.411 27.6061C68.2119 27.5707 70.0067 27.3846 71.7764 27.0499L72.2345 30.6222C70.2914 31.1015 68.2971 31.3437 66.2955 31.3432C60.8475 31.3432 58.5198 29.0194 58.5198 25.0227L58.5156 15.2163Z" fill="black"/>
<path id="Vector_7" d="M80.4446 31.3638C74.9637 31.3638 73.4902 28.3519 73.4902 25.0762V21.0466C73.4902 17.7709 74.9678 14.759 80.4446 14.759C85.9215 14.759 87.399 17.7709 87.399 21.0466V25.0762C87.3866 28.3519 85.9132 31.3638 80.4446 31.3638ZM80.4446 18.1788C78.3108 18.1788 77.4937 19.1306 77.4937 20.9312V25.2081C77.4937 27.0087 78.3191 27.9605 80.4446 27.9605C82.5701 27.9605 83.3956 27.0087 83.3956 25.2081V20.9147C83.3873 19.1141 82.566 18.1624 80.4446 18.1624V18.1788Z" fill="black"/>
<path id="Vector_8" d="M98.0172 18.4261C96.5479 19.0907 95.1322 19.8676 93.7827 20.7499V31.0507H89.7793V15.0845H93.1595L93.4236 16.8521C94.7258 15.9718 96.1385 15.2667 97.6252 14.7549L98.0172 18.4261Z" fill="black"/>
<path id="Vector_9" d="M113.198 25.7314C113.198 29.2707 111.622 31.3638 107.916 31.3638C106.481 31.3488 105.052 31.1942 103.648 30.9023V37.4949L99.6445 38.0511V15.0845H102.827L103.239 16.4277C104.698 15.3404 106.471 14.7548 108.291 14.759C111.506 14.759 113.211 16.6584 113.211 20.2967L113.198 25.7314ZM103.652 27.5319C104.817 27.7879 106.005 27.9259 107.197 27.944C108.642 27.944 109.199 27.2559 109.199 25.8138V20.1895C109.199 18.8793 108.708 18.1582 107.23 18.1582C105.905 18.2058 104.639 18.7162 103.652 19.6003V27.5319Z" fill="black"/>
</g>
</g>
</g>
<defs>
<clipPath id="clip0_198_8968">
<rect width="171.429" height="40" fill="white" transform="translate(-58.2305)"/>
</clipPath>
</defs>
</svg>
