<svg width="246" height="40" viewBox="0 0 246 40" fill="none" xmlns="http://www.w3.org/2000/svg">
<g id="Novartis svg" clip-path="url(#clip0_198_9011)">
<g id="lt;Group&#62;">
<path id="lt;Path&#62;" d="M25.383 17.8928L25.2835 18.1495C26.9413 18.8781 30.6632 21.7678 30.6632 27.5885C30.6632 33.0698 26.0378 38.5924 18.7681 38.5924C9.72455 38.5924 6.60779 33.3099 6.60779 28.4579C6.60779 22.2397 10.9597 18.0998 10.9597 12.4364C10.9359 10.4333 10.2327 8.4976 8.96495 6.94551C7.69717 5.39341 5.93981 4.31677 3.98009 3.89154L3.83088 4.14822C4.54157 4.83702 5.10547 5.66227 5.48866 6.57435C5.87186 7.48643 6.06643 8.46649 6.06069 9.45561C6.06069 15.5744 0.896484 19.9213 0.896484 26.9427C0.896484 33.4092 5.42242 40 18.5277 40C30.2073 40 36.3662 34.2869 36.3662 28.2095C36.3579 22.9932 32.6195 18.58 25.383 17.8928Z" fill="url(#paint0_linear_198_9011)"/>
<path id="lt;Compound Path&#62;" d="M75.8939 38.9567L60.3681 18.9609V36.9861L63.5346 37.7396V38.5676H56.3147V37.7396L58.9009 36.9861V17.3463C58.2715 16.7602 57.5136 16.3292 56.6877 16.0878C56.3727 16.0215 55.95 15.947 55.95 15.947V15.119H62.0757L75.3385 32.3411V16.717L72.172 15.9553V15.1273H79.392V15.9553L76.8058 16.717V34.5933C76.8058 36.2492 76.9218 38.6587 76.9467 38.965L75.8939 38.9567ZM108.355 26.2223C108.355 34.5022 102.552 39.3045 96.2109 39.3045C89.8696 39.3045 84.0423 34.4359 84.0423 26.8681C84.0423 19.3004 89.8448 14.3821 96.1529 14.3821C97.7408 14.3298 99.3229 14.5979 100.805 15.1705C102.286 15.7431 103.637 16.6083 104.776 17.7145C105.915 18.8207 106.82 20.145 107.434 21.6083C108.049 23.0716 108.362 24.6437 108.355 26.2306V26.2223ZM104.318 27.4643C104.318 21.3786 100.671 15.4751 95.7136 15.4751C90.4416 15.4751 88.0626 20.5672 88.0626 26.0153C88.0626 31.4635 91.0716 38.2198 96.7331 38.2198C102.055 38.2198 104.318 32.8379 104.318 27.4643ZM113.37 16.7005L110.883 15.9387V15.1107H120.407V15.9387L117.423 16.7005L123.997 34.6015L130.57 16.7005L127.586 15.9387V15.1107H134.632V15.9387L132.145 16.7005L123.914 39.0147H121.808L113.37 16.7005ZM169.654 26.5949H168.145V16.3444C173.119 16.3444 176.078 17.4871 176.078 21.5442C176.053 24.5581 173.467 26.5949 169.654 26.5949ZM212.269 37.7396L215.585 36.9861V16.7088L212.269 15.947V15.119H222.606V15.947L219.29 16.7088V36.9861L222.606 37.7396V38.5676H212.269V37.7396ZM228.939 32.1259H229.593L231.79 37.1766C233.096 37.8318 234.532 38.1881 235.993 38.2198C238.844 38.2198 241.447 36.5639 241.447 33.5997C241.447 31.3475 239.988 30.0062 237.626 28.7725L235.288 27.5636C232.495 26.1147 229.701 24.0613 229.701 20.7576C229.701 17.1641 232.188 14.3904 237.51 14.3904C239.38 14.4094 241.236 14.7137 243.014 15.2929L243.569 20.7245H242.865L240.834 16.3693C239.782 15.7828 238.598 15.4749 237.394 15.4751C234.7 15.4751 232.868 17.131 232.868 19.4245C232.868 21.5028 234.252 22.811 236.623 24.0364L239.391 25.4771C243.171 27.4312 244.962 29.2445 244.962 32.5978C244.962 36.7377 241.074 39.3128 236.241 39.3128C233.966 39.3473 231.701 39.0089 229.535 38.3109L228.939 32.1259ZM133.115 37.7396L135.776 36.9861L143.99 15.1025L146.734 14.3987L155.214 36.9778L157.875 37.7396V38.5676H147.812V37.7396L151.218 36.9778L148.815 30.4864H139.779L137.392 36.9778L140.799 37.7313V38.5593H133.115V37.7396ZM140.409 28.7559H148.226L144.347 18.2902L140.409 28.7559ZM174.395 27.1C175.224 26.893 179.874 25.709 179.874 21.3041C179.874 17.7686 177.164 15.0279 170.483 15.0279C166.338 15.0279 162.193 15.119 161.671 15.1356V15.9636L164.398 16.7253V36.9778L161.671 37.7396V38.5676H171.32V37.7396L168.153 36.9778V27.8203H170.881L177.852 38.5841H184.027V37.7562L180.902 36.9282L174.395 27.1ZM194.77 16.3362V36.9861L191.455 37.7396V38.5676H201.791V37.7396L198.476 36.9861V16.3444H204.054L205.894 20.3022H206.607L206.077 15.1439H187.169L186.638 20.3022H187.351L189.175 16.3858L194.77 16.3362ZM17.8857 31.2399L21.2014 -0.0496826H14.3213L17.637 31.2399H17.8857Z" fill="#333333"/>
</g>
</g>
<defs>
<linearGradient id="paint0_linear_198_9011" x1="0.888195" y1="21.9416" x2="36.3579" y2="21.9416" gradientUnits="userSpaceOnUse">
<stop offset="0.3" stop-color="#E74A21"/>
<stop offset="0.7" stop-color="#EC9A1E"/>
</linearGradient>
<clipPath id="clip0_198_9011">
<rect width="244.898" height="40" fill="white" transform="translate(0.888672)"/>
</clipPath>
</defs>
</svg>
