<svg width="97" height="40" viewBox="0 0 97 40" fill="none" xmlns="http://www.w3.org/2000/svg">
<g id="Pfizer svg" style="mix-blend-mode:luminosity" clip-path="url(#clip0_198_8999)">
<g id="Group">
<path id="Vector" d="M0.512695 21.6479C0.55768 21.5191 0.602664 21.3968 0.666927 21.2745C2.18354 18.2041 8.66772 16.936 17.9602 18.0624L19.8303 11.1748C10.2679 9.95816 3.28887 11.3293 2.12571 15.6872L0.512695 21.6479Z" fill="#0095FF"/>
<path id="Vector_2" d="M35.4074 14.477C35.3689 14.58 35.3303 14.6829 35.2853 14.7859C33.833 17.9015 27.3231 19.1889 17.9599 18.056L16.0898 24.9436C25.6522 26.1603 32.6312 24.7892 33.7944 20.4313L35.4074 14.477Z" fill="#0000C9"/>
<path id="Vector_3" d="M6.62988 7.21595C20.7421 8.23301 35.1564 15.2237 33.794 20.4441L35.06 15.7837C35.4649 14.316 35.6641 13.5565 35.6641 12.9449C35.6641 7.62792 21.7511 1.13935 8.49995 0.328278L6.62988 7.21595Z" fill="#0095FF"/>
<g id="Group_2">
<path id="Vector_4" d="M29.2895 28.9025C15.1772 27.8918 0.762973 20.9012 2.13178 15.6807L0.865794 20.3411C0.460935 21.8088 0.261719 22.5684 0.261719 23.1799C0.261719 28.4969 14.1747 34.9855 27.4258 35.7966L29.2895 28.9025Z" fill="#0000C9"/>
<path id="Vector_5" d="M80.7642 27.2803C78.9777 27.3061 78.0266 26.1667 78.0266 24.1455C78.0266 24.0103 78.033 23.8815 78.0395 23.7528H85.057C85.1984 23.2185 85.2884 22.6392 85.2884 22.1049C85.2884 19.6395 83.7782 17.7599 80.6935 17.7599C77.5382 17.7599 74.7363 20.8754 74.7363 24.1455C74.7363 27.2803 76.7799 29.1857 80.1859 29.1857C81.6961 29.1857 83.1805 28.6772 84.2216 27.8854L83.5725 26.2568C82.7628 26.8877 81.7667 27.261 80.7642 27.2803ZM80.745 19.5236C81.786 19.5236 82.3194 20.1995 82.3194 21.6865C82.3194 21.8281 82.313 21.9762 82.2937 22.1307H78.2901C78.7271 20.56 79.6589 19.5236 80.745 19.5236Z" fill="#0000C9"/>
<path id="Vector_6" d="M52.9833 17.0647C52.9833 14.5091 50.9911 12.6488 47.9707 12.6488H42.1292L37.7207 28.9089H41.4094L43.0353 22.916H46.2356C49.8986 22.916 52.9833 20.5471 52.9833 17.0647ZM44.8218 21.0106H43.5558L45.3038 14.5542H46.634C48.3113 14.5542 49.256 15.6936 49.256 17.1998C49.2495 19.6138 47.3602 21.0106 44.8218 21.0106Z" fill="#0000C9"/>
<path id="Vector_7" d="M57.7899 18.0624L58.2011 16.5497C58.4068 15.758 58.7602 14.4126 59.2422 12.8548C59.7499 11.252 60.6817 10.2543 61.9348 10.2543C62.5389 10.2543 62.9117 10.531 62.9117 10.9945C62.8859 11.503 62.4682 11.8056 62.4682 12.6231C62.4682 13.5758 63.278 14.316 64.3254 14.316C65.6236 14.316 66.6646 13.2732 66.6646 11.9923C66.6646 10.0161 64.9745 8.71579 62.3975 8.71579C58.6189 8.71579 56.1383 11.1297 54.5831 16.775L48.2725 39.7489H51.8455L57.295 19.8391H61.0095L58.5674 28.896H62.1405L65.0645 18.0496H57.7899V18.0624Z" fill="#0000C9"/>
<path id="Vector_8" d="M75.8742 18.0624H66.4146L65.9455 19.8519H70.5274L63.4199 28.9089H73.4386L73.9013 27.1194H68.7474L75.8742 18.0624Z" fill="#0000C9"/>
<path id="Vector_9" d="M94.6129 17.8758C93.3341 17.8758 91.9717 18.7061 90.9049 20.4248L91.5283 18.0624H87.9552L85.0312 28.9089H88.6043L89.9281 24.0296C90.4615 22.0341 91.7596 20.0837 92.6208 20.0837C93.5461 20.0837 93.1991 21.8281 94.7993 21.8281C95.956 21.8281 96.6565 20.7596 96.6565 19.7811C96.6501 18.6418 95.7504 17.8758 94.6129 17.8758Z" fill="#0000C9"/>
</g>
</g>
</g>
<defs>
<clipPath id="clip0_198_8999">
<rect width="96.7742" height="40" fill="white" transform="translate(0.114258)"/>
</clipPath>
</defs>
</svg>
