<svg width="256" height="40" viewBox="0 0 256 40" fill="none" xmlns="http://www.w3.org/2000/svg">
<path id="Vector" d="M250.917 11.6286C250.917 11.8829 250.565 11.9943 250.4 11.8C249.1 10.2886 246.951 9.14286 244.011 9.14286C237.648 9.14286 234.031 14.28 234.031 20.5C234.031 26.68 237.648 31.8143 244.011 31.8143C246.991 31.8143 249.32 30.7714 250.765 28.9714C250.928 28.7714 251.291 28.88 251.291 29.1371V31.06C251.291 31.2029 251.405 31.3171 251.545 31.3171H255.608C255.751 31.3171 255.865 31.2029 255.865 31.06V0.257143C255.865 0.188944 255.838 0.123539 255.79 0.0753154C255.742 0.0270918 255.676 0 255.608 0L251.171 0C251.103 0.000752293 251.039 0.0281758 250.991 0.0763181C250.943 0.12446 250.917 0.189437 250.917 0.257143V11.6286ZM251.122 20.5C251.122 24.3857 248.837 27.4314 245.051 27.4314C241.308 27.4314 238.98 24.3829 238.98 20.5C238.98 16.5343 241.308 13.5286 245.051 13.5286C248.837 13.5286 251.122 16.5343 251.122 20.5ZM232.797 9.71429C232.797 9.65017 232.773 9.58835 232.729 9.5412C232.686 9.49404 232.626 9.46504 232.562 9.46C232.405 9.44786 232.246 9.44024 232.088 9.43714C229.031 9.43714 227.251 10.6629 226.271 11.8629C226.105 12.0629 225.725 11.9543 225.725 11.6914V9.9C225.725 9.83229 225.699 9.76732 225.651 9.71918C225.603 9.67103 225.539 9.64361 225.471 9.64286H221.405C221.338 9.64361 221.273 9.67103 221.225 9.71918C221.178 9.76732 221.151 9.83229 221.151 9.9V31.06C221.151 31.2029 221.265 31.3171 221.405 31.3171H225.845C225.913 31.3164 225.978 31.289 226.025 31.2408C226.073 31.1927 226.1 31.1277 226.1 31.06V20.0429C226.1 15.8657 228.18 14.0286 231.674 14.0286C231.971 14.0286 232.285 14.0571 232.502 14.0771C232.539 14.0811 232.576 14.0775 232.611 14.0664C232.646 14.0554 232.678 14.0372 232.706 14.0131C232.734 13.9889 232.756 13.9593 232.771 13.926C232.787 13.8928 232.796 13.8567 232.797 13.82V9.71429ZM211.84 21.1714C211.876 21.1661 211.913 21.1687 211.949 21.179C211.984 21.1894 212.017 21.2072 212.045 21.2313C212.073 21.2554 212.095 21.2853 212.11 21.3188C212.126 21.3524 212.134 21.3888 212.134 21.4257V22.5057C212.134 25.4286 210.18 27.9343 206.185 27.9343C203.814 27.9343 202.357 27.14 202.357 25.0943C202.357 23.5914 203.357 22.4657 206.394 22.0029L211.84 21.1714ZM205.188 31.8171C208.265 31.8171 210.58 30.92 212.08 29.16C212.242 28.9657 212.6 29.0743 212.611 29.3314C212.671 30.5743 212.848 31.3143 212.882 31.3143H217.194C217.377 31.3143 217.505 31.1257 217.448 30.9514C217.148 30.0029 216.957 28.4657 216.957 27.2229V17.2429C216.957 12.2743 213.962 9.14286 207.642 9.14286C201.274 9.14286 198.665 12.48 198.151 16.1686C198.147 16.204 198.15 16.24 198.161 16.274C198.172 16.308 198.19 16.3394 198.214 16.3661C198.237 16.3928 198.266 16.4142 198.299 16.4289C198.331 16.4436 198.367 16.4513 198.402 16.4514H202.725C202.851 16.4514 202.954 16.36 202.982 16.2371C203.385 14.36 204.911 13.2371 207.517 13.2371C210.468 13.2371 212.134 14.5714 212.134 17.2029V17.3143C212.134 17.376 212.112 17.4357 212.071 17.4824C212.031 17.5291 211.975 17.5597 211.914 17.5686L205.894 18.4143C200.197 19.2057 197.62 21.5857 197.62 25.26C197.62 28.9743 199.822 31.8171 205.188 31.8171ZM184.52 31.8171C191.422 31.8171 195.748 26.5971 195.748 20.5029C195.748 14.4057 191.422 9.14286 184.52 9.14286C177.657 9.14286 173.334 14.4057 173.334 20.5C173.334 26.5971 177.657 31.8171 184.52 31.8171ZM178.282 20.5029C178.282 16.2829 180.942 13.5286 184.52 13.5286C188.14 13.5286 190.799 16.2829 190.799 20.5C190.799 24.6771 188.14 27.4314 184.52 27.4314C180.942 27.4314 178.282 24.68 178.282 20.5029ZM155.108 11.8C154.942 11.9943 154.594 11.8829 154.594 11.6286V0.257143C154.594 0.188944 154.567 0.123539 154.518 0.0753154C154.47 0.0270918 154.405 0 154.337 0L149.9 0C149.831 0 149.766 0.0270918 149.718 0.0753154C149.669 0.123539 149.642 0.188944 149.642 0.257143V31.0571C149.642 31.2 149.757 31.3143 149.9 31.3143H153.962C154.105 31.3143 154.22 31.2 154.22 31.0571V29.1143C154.22 28.8571 154.574 28.7486 154.734 28.9486C156.211 30.7629 158.542 31.8171 161.497 31.8171C167.9 31.8171 171.52 26.68 171.52 20.5029C171.52 14.28 167.9 9.14286 161.497 9.14286C158.591 9.14286 156.417 10.2886 155.108 11.8ZM154.425 20.5C154.425 16.5343 156.711 13.5286 160.497 13.5286C164.24 13.5286 166.571 16.5343 166.571 20.5C166.571 24.3857 164.24 27.4314 160.497 27.4314C156.714 27.4314 154.425 24.3829 154.425 20.5ZM145.439 27.2314C145.438 27.1913 145.428 27.1519 145.41 27.116C145.392 27.0801 145.366 27.0487 145.335 27.0239C145.303 26.9991 145.266 26.9815 145.227 26.9724C145.188 26.9634 145.147 26.963 145.108 26.9714C144.822 27.0286 144.382 27.1 143.902 27.1C142.197 27.1 141.491 26.2629 141.491 24.5514V13.8657C141.492 13.798 141.519 13.7333 141.567 13.6857C141.615 13.6381 141.68 13.6114 141.748 13.6114H145.268C145.411 13.6114 145.525 13.4971 145.525 13.3543V9.90571C145.525 9.83752 145.498 9.77211 145.45 9.72389C145.402 9.67566 145.336 9.64857 145.268 9.64857H141.745C141.711 9.64857 141.678 9.64192 141.647 9.629C141.616 9.61608 141.587 9.59713 141.563 9.57326C141.54 9.54938 141.521 9.52103 141.508 9.48983C141.495 9.45863 141.488 9.4252 141.488 9.39143V4.26857C141.488 4.20087 141.461 4.13589 141.414 4.08775C141.366 4.0396 141.301 4.01218 141.234 4.01143H136.797C136.728 4.01143 136.663 4.03852 136.615 4.08674C136.567 4.13497 136.54 4.20037 136.54 4.26857V9.39429C136.54 9.42805 136.533 9.46149 136.52 9.49269C136.507 9.52389 136.488 9.55224 136.464 9.57611C136.44 9.59999 136.412 9.61893 136.381 9.63186C136.35 9.64478 136.316 9.65143 136.282 9.65143H133.511C133.443 9.65142 133.378 9.67812 133.33 9.72573C133.282 9.77334 133.255 9.83801 133.254 9.90571V13.36C133.254 13.5029 133.368 13.6171 133.511 13.6171H136.282C136.425 13.6171 136.54 13.7314 136.54 13.8714V25.0571C136.54 29.1486 138.454 31.4457 142.862 31.4457C144.085 31.4457 144.902 31.3086 145.251 31.2371C145.305 31.2252 145.354 31.1948 145.388 31.151C145.423 31.1072 145.441 31.0528 145.439 30.9971V27.2314ZM110.531 20.5C110.531 26.7629 114.94 31.8143 121.302 31.8143C127.548 31.8143 130.788 27.5686 131.485 23.7571C131.492 23.7211 131.49 23.6841 131.48 23.6488C131.471 23.6135 131.453 23.5808 131.429 23.5529C131.406 23.5251 131.376 23.5029 131.343 23.4878C131.309 23.4727 131.273 23.4652 131.237 23.4657H126.66C126.602 23.4662 126.547 23.4855 126.501 23.5206C126.456 23.5556 126.423 23.6046 126.408 23.66C125.768 25.8914 123.848 27.4314 121.26 27.4314C117.725 27.4314 115.48 24.5514 115.48 20.5C115.48 16.4086 117.725 13.5286 121.26 13.5286C123.848 13.5286 125.768 15.0686 126.408 17.3C126.44 17.4143 126.542 17.4943 126.66 17.4943H131.237C131.273 17.4948 131.309 17.4873 131.343 17.4722C131.376 17.4571 131.406 17.4349 131.429 17.4071C131.453 17.3792 131.471 17.3465 131.48 17.3112C131.49 17.2759 131.492 17.2389 131.485 17.2029C130.788 13.3914 127.548 9.14571 121.302 9.14571C114.94 9.14571 110.531 14.1971 110.531 20.5ZM102.197 22.1286C102.197 25.6771 100.285 27.5571 97.2081 27.5571C94.2138 27.5571 93.0081 25.5943 93.0081 22.6314V9.9C93.0081 9.8318 92.981 9.7664 92.9328 9.71817C92.8846 9.66995 92.8191 9.64286 92.7509 9.64286H88.3138C88.2456 9.64286 88.1802 9.66995 88.132 9.71817C88.0838 9.7664 88.0567 9.8318 88.0567 9.9V23.3C88.0567 28.3514 90.7624 31.8143 95.9995 31.8143C98.9081 31.8143 100.894 30.72 102.005 29.3629C102.174 29.1571 102.574 29.2743 102.574 29.54V31.06C102.574 31.2029 102.688 31.3171 102.831 31.3171H106.891C107.034 31.3171 107.148 31.2029 107.148 31.06V9.9C107.148 9.8318 107.121 9.7664 107.073 9.71817C107.025 9.66995 106.959 9.64286 106.891 9.64286H102.454C102.386 9.64286 102.32 9.66995 102.272 9.71817C102.224 9.7664 102.197 9.8318 102.197 9.9V22.1286ZM79.311 11.6286C79.311 11.8829 78.9595 11.9943 78.7938 11.8C77.4938 10.2886 75.3452 9.14286 72.4052 9.14286C66.0424 9.14286 62.4224 14.28 62.4224 20.5C62.4224 26.68 66.0424 31.8143 72.4052 31.8143C75.3824 31.8143 77.7109 30.7714 79.1595 28.9714C79.3224 28.7714 79.6824 28.88 79.6824 29.1371V31.06C79.6824 31.2029 79.7967 31.3171 79.9395 31.3171H84.0024C84.1452 31.3171 84.2595 31.2029 84.2595 31.06V0.257143C84.2595 0.188944 84.2324 0.123539 84.1842 0.0753154C84.136 0.0270918 84.0706 0 84.0024 0L79.5652 0C79.497 0 79.4316 0.0270918 79.3834 0.0753154C79.3352 0.123539 79.3081 0.188944 79.3081 0.257143L79.311 11.6286ZM79.5167 20.5C79.5167 24.3857 77.2309 27.4314 73.4452 27.4314C69.7024 27.4314 67.3709 24.3829 67.3709 20.5C67.3709 16.5343 69.7024 13.5286 73.4452 13.5286C77.2281 13.5286 79.5167 16.5343 79.5167 20.5ZM49.1967 31.8171C56.1024 31.8171 60.4252 26.5971 60.4252 20.5029C60.4252 14.4029 56.1052 9.14286 49.1967 9.14286C42.3367 9.14286 38.0109 14.4057 38.0109 20.5C38.0109 26.5971 42.3367 31.8171 49.1967 31.8171ZM42.9595 20.5029C42.9595 16.2829 45.6195 13.5286 49.1967 13.5286C52.8167 13.5286 55.4767 16.2829 55.4767 20.5C55.4767 24.6771 52.8167 27.4314 49.1967 27.4314C45.6195 27.4314 42.9595 24.68 42.9595 20.5029ZM37.4424 9.71429C37.4426 9.65017 37.4185 9.58835 37.3751 9.5412C37.3317 9.49404 37.272 9.46504 37.2081 9.46C37.0512 9.44786 36.894 9.44024 36.7367 9.43714C33.6795 9.43714 31.8967 10.6629 30.9167 11.8629C30.751 12.0629 30.3738 11.9543 30.3738 11.6914V9.9C30.3738 9.8318 30.3467 9.7664 30.2985 9.71817C30.2503 9.66995 30.1849 9.64286 30.1167 9.64286H26.0538C25.9856 9.64286 25.9202 9.66995 25.872 9.71817C25.8238 9.7664 25.7967 9.8318 25.7967 9.9V31.06C25.7967 31.2029 25.911 31.3171 26.0538 31.3171H30.4909C30.6338 31.3171 30.7481 31.2029 30.7481 31.06V20.0429C30.7481 15.8657 32.8252 14.0286 36.3195 14.0286C36.6195 14.0286 36.931 14.0571 37.1481 14.0771C37.1846 14.0811 37.2215 14.0775 37.2565 14.0664C37.2916 14.0554 37.3239 14.0372 37.3516 14.0131C37.3792 13.9889 37.4016 13.9593 37.4172 13.926C37.4328 13.8928 37.4414 13.8567 37.4424 13.82V9.71429ZM5.81381 29.3486C5.81381 29.0914 6.16809 28.98 6.33667 29.1771C7.64238 30.7057 9.81666 31.8171 12.7195 31.8171C19.1224 31.8171 22.7424 26.68 22.7424 20.5029C22.7424 14.28 19.1224 9.14286 12.7195 9.14286C9.76238 9.14286 7.43095 10.2314 5.95381 12.0286C5.79381 12.2257 5.43952 12.1143 5.43952 11.8571V9.9C5.43952 9.8318 5.41243 9.7664 5.36421 9.71817C5.31598 9.66995 5.25057 9.64286 5.18238 9.64286H1.12238C1.05418 9.64286 0.988776 9.66995 0.940553 9.71817C0.892329 9.7664 0.865234 9.8318 0.865234 9.9V39.7429C0.865234 39.8857 0.979521 40 1.12238 40H5.55952C5.70238 40 5.81666 39.8857 5.81666 39.7429L5.81381 29.3486ZM5.64809 20.5C5.64809 16.4914 7.9338 13.4429 11.7195 13.4429C15.4624 13.4429 17.7938 16.4914 17.7938 20.5C17.7938 24.3857 15.4624 27.4314 11.7195 27.4314C7.93666 27.4314 5.64809 24.3829 5.64809 20.5Z" fill="#000C2C"/>
</svg>
