<svg width="233" height="95" viewBox="0 0 233 95" fill="none" xmlns="http://www.w3.org/2000/svg">
<path id="Vector" d="M178.909 14.5039C142.369 -3.79552 72.1058 -0.699611 36.0396 15.3133C19.6142 22.6061 -10.6739 43.7373 7.75653 63.6878C11.0072 67.2067 14.9585 70.0655 19.0466 72.5392C64.0382 99.7621 126.79 96.9897 175.076 80.7008C182.277 78.2714 189.363 75.3875 195.883 71.4679C200.759 68.5363 205.473 64.9028 209.27 60.6625C220.386 48.249 217.482 35.7564 205.523 25.2324C191.657 13.0307 172.696 9.24941 154.805 7.17858C139.16 5.36782 123.535 5.02011 107.816 5.75913C78.3367 7.14492 44.3638 9.34997 19.6394 26.032C8.84042 33.3184 -2.76167 48.8884 6.49498 61.4901C16.5258 75.1453 40.1772 79.567 56.0854 82.4485C99.0007 90.2222 166.904 86.3676 205.995 65.9681C210.21 63.7682 214.481 61.7182 218.252 58.8254C221.231 56.5396 224.084 53.9333 226.559 51.1126C244.097 31.1229 204.961 18.5543 191.159 16.3959C147.739 9.60578 83.4753 -0.193011 43.4878 17.8699" stroke="#3B2385" stroke-width="2.42769" stroke-miterlimit="1.5" stroke-linecap="round" stroke-linejoin="round"/>
</svg>
