<svg width="123" height="40" viewBox="0 0 123 40" fill="none" xmlns="http://www.w3.org/2000/svg">
<g id="Verizon svg" clip-path="url(#clip0_198_9015)">
<g id="g10">
<g id="g12">
<path id="path16" d="M72.8043 3.82141H80.8063V10.9045H72.8043V3.82141ZM9.85851 39.1842H18.2169L27.2898 13.0961H19.2878L14.191 29.8596H14.089L8.9921 13.0961H0.786133L9.85851 39.1842ZM39.216 18.0381C42.0191 18.0381 43.9559 20.1278 44.2618 23.1847H33.6096C34.2214 20.0762 35.9028 18.0381 39.216 18.0381ZM39.6239 34.1912C36.107 34.1912 33.9666 31.8978 33.5585 28.3828H52.366C52.4168 22.7769 50.9384 18.293 47.8295 15.4906C45.6382 13.4524 42.7326 12.3314 39.0629 12.3314C31.2144 12.3314 25.7605 18.293 25.7605 26.0891C25.7605 33.936 30.9593 39.9486 39.573 39.9486C42.8351 39.9486 45.4342 39.0823 47.575 37.6043C49.8688 36.0256 51.4994 33.7321 51.9578 31.4395H44.3129C43.5486 33.1718 41.9683 34.1912 39.6239 34.1912ZM54.2516 39.1842H62.2027V27.2106C62.2027 21.7581 65.4648 19.363 70.4597 20.0258H70.6125V13.1471C70.2046 12.9941 69.7462 12.9432 68.9819 12.9432C65.8726 12.9432 63.783 14.3696 61.9988 17.4268H61.8457V13.0961H54.2516V39.1842ZM72.8043 39.1842H80.8063V13.0961H72.8043V39.1842ZM82.9992 39.1842H105.323V32.9174H92.6834V32.7639L104.763 19.2101V13.0961H82.9992V19.363H95.2317V19.516L82.9992 33.1718V39.1842ZM119.442 34.1398C115.67 34.1398 113.682 30.9812 113.682 26.191C113.682 21.3502 115.67 18.242 119.442 18.242C123.213 18.242 125.303 21.3502 125.303 26.191C125.303 30.9812 123.213 34.1398 119.442 34.1398ZM119.493 12.3825C111.185 12.3825 105.629 18.344 105.629 26.191C105.629 33.9874 111.185 40 119.493 40C127.801 40 133.356 33.9874 133.356 26.191C133.356 18.344 127.801 12.3825 119.493 12.3825ZM135.089 39.1842H143.04V24.6626C143.04 21.3502 144.977 19.0062 147.831 19.0062C150.583 19.0062 152.01 20.9429 152.01 23.6945V39.1842H159.961V22.1662C159.961 16.4077 156.496 12.3314 150.889 12.3314C147.322 12.3314 144.824 13.8603 142.938 16.6626H142.785V13.0961H135.089V39.1842Z" fill="#100F0D"/>
</g>
</g>
</g>
<defs>
<clipPath id="clip0_198_9015">
<rect width="180.619" height="40" fill="white" transform="translate(0.786133)"/>
</clipPath>
</defs>
</svg>
