<svg width="161" height="40" viewBox="0 0 161 40" fill="none" xmlns="http://www.w3.org/2000/svg">
<g id="Webflow svg" clip-path="url(#clip0_198_8983)">
<path id="Vector" d="M51.8613 15.6419C51.8613 12.789 49.0702 9.75898 44.2403 9.75898C38.8166 9.75898 32.8584 13.7137 31.9479 21.6035C31.0175 29.5721 36.0058 33.1136 41.0336 33.1136C46.0614 33.1136 48.6941 31.1658 51.3862 28.5686C49.0702 25.6763 46.0812 27.0143 45.5072 27.3094C44.8737 27.6242 44.0622 28.0571 42.3994 28.0571C40.4595 28.0571 38.4801 27.1913 38.4801 23.5908C50.9111 22.3709 51.8613 18.4948 51.8613 15.6419ZM45.7051 16.1141C45.6259 16.9995 45.2696 18.5145 38.9749 19.3605C40.3012 14.6778 42.8349 14.3237 44.0028 14.3237C45.0915 14.3237 45.7843 15.1697 45.7051 16.1141ZM24.6436 16.8815C24.6436 16.8815 21.9714 25.2238 21.7536 25.9124C21.6744 25.2041 19.7148 10.2312 19.7148 10.2312C15.162 10.2312 12.7273 13.4579 11.4406 16.8618C11.4406 16.8618 8.1943 25.2238 7.91717 25.9321C7.89738 25.2828 7.42231 16.9602 7.42231 16.9602C7.14518 12.789 3.30502 10.2509 0.197266 10.2509L3.95825 32.9365C8.72875 32.9169 11.3021 29.7098 12.6481 26.306C12.6481 26.306 15.5183 18.9277 15.6371 18.5932C15.6569 18.908 17.6957 32.9365 17.6957 32.9365C22.486 32.9365 25.0593 29.9262 26.4449 26.6404L33.1553 10.2509C28.4244 10.2509 25.9303 13.4579 24.6436 16.8815ZM69.4389 9.71963C66.4895 9.71963 64.2329 11.3133 62.3326 13.6547V13.635L64.035 0C60.1156 0 56.9287 3.38416 56.315 8.42105L53.3458 32.7595C55.6024 32.7595 57.9976 32.1102 59.2842 30.4575C60.4323 31.9331 62.1545 33.1136 64.708 33.1136C71.3194 33.1136 75.8523 25.4796 75.8523 18.3178C75.8128 11.7855 72.6258 9.71963 69.4389 9.71963ZM68.8253 21.4265C68.1324 25.4206 65.8956 28.1358 63.738 28.1358C61.5606 28.1358 60.6303 27.1717 60.6303 27.1717C61.046 23.6695 61.3033 21.5248 62.0951 19.6754C62.8869 17.8259 64.7674 14.8746 66.727 14.8746C68.6471 14.8746 69.5181 17.4127 68.8253 21.4265ZM92.3611 10.2509H87.7489L87.7687 10.0148C88.0854 7.0241 88.798 5.45007 91.1536 5.19429C92.757 5.03689 93.4696 4.21053 93.6477 3.30546C93.7863 2.59715 94.2218 0.137727 94.2218 0.137727C84.9579 0.0787014 82.0481 4.05312 81.2959 10.1131L81.2761 10.2509H81.1771C79.6727 10.2509 78.01 11.9429 77.7328 14.0876L77.6339 14.8746H80.7218L78.1287 36.1633L77.3369 39.9803C77.4359 39.9803 77.5547 40 77.6537 40C81.9887 39.8426 84.7599 36.4388 85.3736 31.5002L87.3926 14.8746H88.8376C90.2628 14.8746 91.9256 13.4579 92.2225 11.0969L92.3611 10.2509ZM116.352 9.85735C111.027 9.85735 106 13.7531 104.456 19.8721C102.912 25.9911 105.247 33.2317 113.086 33.2317C120.905 33.2317 125.418 25.696 125.418 19.4196C125.418 13.1825 121.162 9.85735 116.352 9.85735ZM118.51 21.2297C118.233 24.0039 117.005 28.2145 113.64 28.2145C110.255 28.2145 110.73 23.2956 111.067 20.9543C111.423 18.4555 112.829 14.8942 115.857 14.8942C118.569 14.8942 118.826 18.1013 118.51 21.2297ZM151.725 16.8815C151.725 16.8815 149.053 25.2238 148.835 25.9124C148.756 25.2041 146.796 10.2312 146.796 10.2312C142.244 10.2312 139.809 13.4579 138.522 16.8618C138.522 16.8618 135.276 25.2238 134.999 25.9321C134.979 25.2828 134.504 16.9602 134.504 16.9602C134.227 12.789 130.387 10.2509 127.279 10.2509L131.02 32.9365C135.79 32.9169 138.364 29.7098 139.71 26.306C139.71 26.306 142.58 18.9277 142.679 18.5932C142.719 18.908 144.738 32.9365 144.738 32.9365C149.528 32.9365 152.101 29.9262 153.487 26.6404L160.197 10.2509C155.486 10.2509 152.992 13.4579 151.725 16.8815ZM96.7159 0.137727L92.8361 31.2445L92.0444 35.0812C92.1433 35.0812 92.2621 35.1008 92.3611 35.1008C96.5377 35.0418 99.5069 31.4019 100.061 26.8175L102.298 8.97196C102.971 3.52189 99.7049 0.137727 96.7159 0.137727Z" fill="black"/>
</g>
<defs>
<clipPath id="clip0_198_8983">
<rect width="160" height="40" fill="white" transform="translate(0.197266)"/>
</clipPath>
</defs>
</svg>
